<?xml version="1.0" encoding="UTF-8"?>
<svg id="Layer_1" xmlns="http://www.w3.org/2000/svg" version="1.1" viewBox="0 0 595.28 595.28">
  <!-- Generator: Adobe Illustrator 30.3.0, SVG Export Plug-In . SVG Version: 2.1.3 Build 182)  -->
  <defs>
    <style>
      .st0 {
        fill: #fcfcfc;
      }

      .st1 {
        fill: #fdfdfd;
      }
    </style>
  </defs>
  <path class="st0" d="M215.67,180.11c20.32-.18,40.12,1.65,59.45,7.16,9.34,2.66,18.27,6.35,26.18,12.14,7.2,5.27,11.76,11.89,12.5,21.2.73,9.22.97,18.34-.71,27.44-3.21,17.32-14.39,27.49-30.25,33.26-28.24,10.26-57.38,11.01-86.83,7.9-13.9-1.47-27.46-4.51-40.54-9.55-9.4-3.62-17.99-8.41-24.37-16.9-1.08,5.83.24,10.55,4.05,14.68,4.86,5.27,11.04,8.45,17.44,11.23,14.07,6.12,28.98,8.97,44.12,10.56,9.23.97,18.54,1.75,27.8,1.65,18.82-.21,37.54-1.98,55.5-8.03,7.07-2.38,13.75-5.94,20.99-9.13,10.33,8.68,15.72,20.98,18.11,34.76,1.71,9.83,1.3,19.66-1.33,29.35-4.42,16.26-14.83,27.25-29.87,34.23-14.75,6.85-30.43,10.09-46.47,11.82-27.26,2.94-54.13.9-80.47-6.86-11.49-3.39-22.4-8.09-31.23-16.53-6.5-6.21-9.99-13.6-9.96-22.92.16-42.52.06-85.05,0-127.57-.02-10.19,5.75-16.75,13.61-21.88,10.25-6.69,21.72-10.51,33.56-13.14,15.93-3.54,32.11-5.1,48.73-4.88M202.19,190.17c-15.01,1.03-29.85,3.07-44.16,7.98-7.34,2.52-14.53,5.45-20.12,11.14-6.42,6.53-6.37,13.11.2,19.47,6.89,6.67,15.68,9.81,24.6,12.46,21.09,6.28,42.71,8.11,64.61,7.06,18.15-.87,36.03-3.33,53.05-10.05,6.75-2.67,13.37-5.78,18.01-11.76,3.82-4.93,4.07-9.77.15-14.55-2.28-2.79-5.14-5.33-8.2-7.22-11.58-7.11-24.6-10.16-37.81-12.25-16.49-2.61-33.11-3.3-50.34-2.29M189.97,348.7c3.27.33,6.55.68,9.82.97,24.75,2.18,49.3,1.47,73.46-4.95,10.24-2.72,20.17-6.17,28.44-13.16,5.66-4.78,8.23-10.7,6.79-17.64-3.45,3.19-6.75,6.86-10.66,9.72-8.97,6.57-19.46,9.94-30.13,12.26-35.36,7.71-70.55,6.76-105.25-3.79-12.04-3.66-23.63-8.6-31.42-19.75-1.13,6.56.44,11.83,5.13,16.26,5.53,5.22,12.06,8.68,19.05,11.35,11.07,4.23,22.6,6.68,34.76,8.72M153.69,303.43c-3.08-1.66-5.41-1.43-7.31.72-1.73,1.95-1.9,4.73-.4,6.64,1.52,1.93,4.56,2.56,6.87,1.44,3.34-1.63,3.81-5.03.84-8.79M155.24,259.45c1.04-2.24.6-4.43-1.29-5.71-1.35-.91-3.43-1.4-5.03-1.13-2.34.4-3.85,2.29-3.82,4.82.03,2.44,1.29,4.33,3.66,5.07,2.72.85,4.96.03,6.48-3.04M151.51,362.27c3.33-1.38,4.73-3.5,3.98-6.03-.87-2.93-3.6-4.59-6.47-3.93-2.39.54-4.4,3.23-4.16,5.56.3,2.92,2.66,4.64,6.65,4.41Z"/>
  <path class="st1" d="M324.85,359.1c8.56-21.06,7.69-41.75-1.35-62.15-1.98-4.47-4.9-8.52-7.39-12.76-.19-.33-.66-.66-.63-.94.63-5.21-1.37-10.72,1.24-15.66,8.41-15.92,10.42-32.67,6.37-50.07-1.12-4.8-3.47-9.31-5.35-14.2,1.61,0,3.58,0,5.56,0,8.52,0,17.05.11,25.57-.03,2.26-.04,3.43.82,4.63,2.59,13.28,19.51,26.63,38.97,39.98,58.43.48.7,1.05,1.35,1.8,2.31,2.38-3.4,4.66-6.6,6.88-9.83,11.9-17.3,23.77-34.62,35.71-51.9.5-.72,1.62-1.44,2.46-1.45,11.33-.08,22.66-.04,34-.02.17,0,.33.14.63.28v169.7h-36.13v-110.85c-14.64,21.48-28.97,42.5-43.6,63.97-14.51-21.34-28.82-42.39-43.48-63.95v110.79h-34.39c2.51-4.78,4.96-9.43,7.49-14.28Z"/>
</svg>